HIERARCHY
ROOT Hips
{
	OFFSET 55.310501 45.591206 43.872097
	CHANNELS 6 Xposition Yposition Zposition Zrotation Xrotation Yrotation
	JOINT Chest
	{
		OFFSET -0.153500 1.163101 7.852402
		CHANNELS 6 Xposition Yposition Zposition Zrotation Xrotation Yrotation
		JOINT Chest2
		{
			OFFSET 0.000000 0.000000 3.343300
			CHANNELS 6 Xposition Yposition Zposition Zrotation Xrotation Yrotation
			JOINT Neck
			{
				OFFSET 0.000000 0.000000 7.785500
				CHANNELS 6 Xposition Yposition Zposition Zrotation Xrotation Yrotation
				JOINT Head
				{
					OFFSET 0.000000 0.000000 2.173901
					CHANNELS 6 Xposition Yposition Zposition Zrotation Xrotation Yrotation
					End Site
					{
						OFFSET 0.000000 0.000000 10.528198
					}
				}
			}
			JOINT LeftCollar
			{
				OFFSET 2.676300 -1.652401 4.938301
				CHANNELS 6 Xposition Yposition Zposition Zrotation Xrotation Yrotation
				JOINT LeftShoulder
				{
					OFFSET 4.299000 0.000000 0.000000
					CHANNELS 6 Xposition Yposition Zposition Zrotation Xrotation Yrotation
					JOINT LeftElbow
					{
						OFFSET 0.000000 0.000000 -10.245102
						CHANNELS 6 Xposition Yposition Zposition Zrotation Xrotation Yrotation
						JOINT LeftWrist
						{
							OFFSET 0.000000 0.000000 -12.703300
							CHANNELS 6 Xposition Yposition Zposition Zrotation Xrotation Yrotation
							End Site
							{
								OFFSET 0.000000 0.000000 -2.173901
							}
						}
					}
				}
			}
			JOINT RightCollar
			{
				OFFSET -2.534599 -1.686401 5.195000
				CHANNELS 6 Xposition Yposition Zposition Zrotation Xrotation Yrotation
				JOINT RightShoulder
				{
					OFFSET -4.144100 0.000000 0.000000
					CHANNELS 6 Xposition Yposition Zposition Zrotation Xrotation Yrotation
					JOINT RightElbow
					{
						OFFSET 0.000000 0.000000 -10.116501
						CHANNELS 6 Xposition Yposition Zposition Zrotation Xrotation Yrotation
						JOINT RightWrist
						{
							OFFSET 0.000000 0.000000 -12.937801
							CHANNELS 6 Xposition Yposition Zposition Zrotation Xrotation Yrotation
							End Site
							{
								OFFSET 0.000000 0.000000 -2.173901
							}
						}
					}
				}
			}
		}
	}
	JOINT LeftHip
	{
		OFFSET 2.175598 0.064499 -2.662899
		CHANNELS 6 Xposition Yposition Zposition Zrotation Xrotation Yrotation
		JOINT LeftKnee
		{
			OFFSET 0.000000 -0.000004 -18.585800
			CHANNELS 6 Xposition Yposition Zposition Zrotation Xrotation Yrotation
			JOINT LeftAnkle
			{
				OFFSET 0.000000 0.000000 -18.979500
				CHANNELS 6 Xposition Yposition Zposition Zrotation Xrotation Yrotation
				End Site
				{
					OFFSET 0.000000 -9.264000 0.000000
				}
			}
		}
	}
	JOINT RightHip
	{
		OFFSET -2.092400 -0.058102 -2.581200
		CHANNELS 6 Xposition Yposition Zposition Zrotation Xrotation Yrotation
		JOINT RightKnee
		{
			OFFSET 0.000000 -0.000004 -18.665001
			CHANNELS 6 Xposition Yposition Zposition Zrotation Xrotation Yrotation
			JOINT RightAnkle
			{
				OFFSET 0.000000 0.000000 -18.566601
				CHANNELS 6 Xposition Yposition Zposition Zrotation Xrotation Yrotation
				End Site
				{
					OFFSET 0.000000 -8.497601 0.000000
				}
			}
		}
	}
}
MOTION
Frames: 4
Frame Time: 0.041667
66.158691 -7.474998 40.201889 3161.420048 43.740904 24.895565 -0.153499 1.163106 7.852401 20.114028 5.625519 9.530117 0.000002 0.000007 3.343308 -5.116439 -3.321375 0.010393 -0.000004 -0.000004 7.785505 52.850436 -27.202050 16.450241 -0.000002 -0.000000 2.173910 5.972381 -10.870631 7.387613 2.676296 -1.652399 4.938303 -6.619692 6.551580 3.006469 4.298997 0.000008 -0.000005 -358.955018 16.797397 262.511573 -0.000002 0.000007 -10.245093 7.615643 731.011432 383.067198 -0.000005 -0.000000 -12.703292 1214.807064 -173.303223 556.927450 -2.534600 -1.686398 5.195011 9.304743 9.915264 15.152595 -4.144104 0.000010 -0.000003 157.082576 180.901180 -83.992407 0.000007 0.000000 -10.116489 -583.970901 -167.476430 -196.641843 0.000004 0.000001 -12.937798 -1433.202527 -12.138686 12.319458 2.175596 0.064507 -2.662899 -971.274101 -30.967108 70.399771 0.000001 0.000008 -18.585800 449.573843 -225.944912 -148.909763 -0.000005 -0.000007 -18.979500 717.918233 5.053114 -740.875701 -2.092396 -0.058103 -2.581196 1529.601084 43.985261 -37.711722 -0.000005 -0.000008 -18.665007 -1273.793780 145.334322 -998.107127 -0.000010 -0.000004 -18.566616 631.206960 -2.160584 140.121481
66.145103 -7.447201 40.177692 3161.241042 43.718566 24.976897 -0.153502 1.163095 7.852404 20.316878 5.601273 9.497025 -0.000001 -0.000003 3.343307 -5.103811 -3.429234 0.014801 0.000003 -0.000002 7.785501 52.841120 -27.006418 16.365000 0.000007 0.000006 2.173896 5.687679 -10.920497 7.235117 2.676303 -1.652399 4.938302 -6.785534 6.766148 3.268983 4.299003 -0.000001 -0.000002 -358.802814 16.802942 262.285056 -0.000008 0.000002 -10.245104 7.684656 730.925645 383.080339 0.000000 0.000007 -12.703300 1214.879191 -173.283853 556.887945 -2.534595 -1.686395 5.195006 9.060780 9.808929 15.122380 -4.144098 0.000007 0.000008 157.430697 180.964838 -83.746869 0.000009 0.000006 -10.116492 -583.501531 -167.410915 -196.421159 0.000005 -0.000004 -12.937805 -1433.413552 -12.332064 12.159642 2.175596 0.064500 -2.662899 -971.143398 -30.672737 70.616984 -0.000007 0.000002 -18.585804 446.100555 -225.121464 -147.002746 -0.000006 -0.000007 -18.979500 720.309346 4.561631 -740.599379 -2.092398 -0.058115 -2.581198 1529.104721 44.149192 -37.293963 -0.000009 -0.000006 -18.665014 -1273.297198 144.915386 -998.194663 -0.000012 -0.000007 -18.566614 631.618520 -2.048524 139.907505
66.140297 -7.425793 40.162094 3161.147496 43.664399 24.954967 -0.153500 1.163110 7.852394 20.374565 5.719856 9.556926 0.000001 0.000003 3.343310 -5.119331 -3.482118 0.015739 0.000006 -0.000017 7.785497 52.925189 -27.000103 16.331785 0.000006 0.000001 2.173911 5.557356 -10.999262 7.316674 2.676299 -1.652407 4.938295 -6.679199 6.682766 3.305466 4.299002 0.000008 -0.000005 -358.869750 17.153040 262.228611 -0.000007 0.000006 -10.245090 8.027670 730.871878 383.034058 -0.000001 0.000005 -12.703306 1214.866623 -173.267378 556.872918 -2.534591 -1.686404 5.194997 8.937541 9.682069 15.077585 -4.144100 0.000002 0.000003 157.649768 180.509742 -83.631056 0.000004 -0.000004 -10.116490 -583.890906 -167.424903 -196.248028 0.000002 0.000008 -12.937804 -1433.423715 -12.441933 12.118826 2.175594 0.064513 -2.662904 -971.379887 -30.598407 70.614901 -0.000006 -0.000003 -18.585800 443.577019 -224.403953 -145.688522 -0.000006 0.000002 -18.979500 722.298242 4.192119 -740.327865 -2.092396 -0.058095 -2.581203 1528.919158 44.230584 -37.095546 0.000008 -0.000011 -18.665010 -1273.071637 144.903215 -998.333780 -0.000006 0.000003 -18.566616 631.597319 -2.000318 139.730986
66.139801 -7.403797 40.149200 3160.914723 43.677506 25.118010 -0.153501 1.163095 7.852407 20.425962 5.670017 9.457596 0.000001 0.000000 3.343308 -5.117255 -3.450957 0.016659 -0.000006 -0.000008 7.785499 53.184518 -26.937646 16.579181 -0.000004 0.000002 2.173911 5.413761 -11.164199 7.344248 2.676290 -1.652406 4.938300 -6.522520 6.511852 3.335881 4.298995 -0.000000 0.000003 -359.030506 17.189590 262.288936 0.000000 0.000001 -10.245102 8.013774 730.835869 383.100229 0.000002 0.000001 -12.703313 1214.894162 -173.251969 556.854832 -2.534599 -1.686407 5.194995 8.896835 9.811504 15.494288 -4.144102 0.000010 0.000000 157.757030 180.329193 -83.950142 0.000003 -0.000004 -10.116492 -584.075376 -167.541153 -196.047056 -0.000003 -0.000005 -12.937804 -1433.326235 -12.530699 12.113839 2.175591 0.064497 -2.662889 -971.546653 -30.685322 70.724423 -0.000009 0.000002 -18.585800 442.065416 -223.941808 -144.947119 -0.000005 -0.000008 -18.979498 723.695808 3.913560 -740.104053 -2.092398 -0.058107 -2.581181 1528.949430 44.107951 -36.887574 -0.000008 0.000002 -18.665007 -1272.990549 145.146861 -998.485793 -0.000001 -0.000000 -18.566608 631.331542 -2.052319 139.750192
